<svg xmlns="http://www.w3.org/2000/svg" viewBox="0 0 720 520" role="img" aria-labelledby="title desc">
<title id="title">Privacy Shield presentation artwork</title><desc id="desc">Layered privacy bands filter external data paths before they reach a protected local information core.</desc>
<defs><linearGradient id="bg" x1="64" y1="48" x2="654" y2="472"><stop stop-color="#DFF8FF"/><stop offset=".5" stop-color="#DDE5FF"/><stop offset="1" stop-color="#ECE0FF"/></linearGradient><linearGradient id="shield" x1="282" y1="126" x2="444" y2="406"><stop stop-color="#7BD9FF"/><stop offset=".52" stop-color="#5B8CFF"/><stop offset="1" stop-color="#7A5CFA"/></linearGradient></defs>
<rect x="58" y="48" width="604" height="424" rx="60" fill="url(#bg)" stroke="#8DCDEA" stroke-opacity=".48"/>
<path d="M360 92c-58 29-107 43-150 48v117c0 101 53 169 150 215 97-46 150-114 150-215V140c-43-5-92-19-150-48Z" fill="url(#shield)" fill-opacity=".94"/>
<circle cx="360" cy="258" r="86" fill="#F8FBFF" fill-opacity=".94"/>
<path d="M274 258h172M360 172c27 27 42 55 42 86s-15 59-42 86c-27-27-42-55-42-86s15-59 42-86Z" fill="none" stroke="#57739A" stroke-opacity=".34" stroke-width="10"/>
<path d="M176 176c75-32 157-42 244-29 48 7 90 18 124 34v48c-43-20-87-33-134-39-80-11-158-2-234 29Z" fill="#EDF8FF" fill-opacity=".87"/>
<path d="M160 265c58-24 115-34 174-30v48c-59-4-117 6-174 31Z" fill="#D9ECFF" fill-opacity=".90"/>
<path d="M392 238c59 5 114 21 166 47v49c-54-28-111-45-171-51Z" fill="#C9D9FF" fill-opacity=".82"/>
<circle cx="143" cy="185" r="12" fill="#fff"/><circle cx="576" cy="287" r="12" fill="#fff"/><path d="M155 188h40M548 290h-42" stroke="#466D9B" stroke-opacity=".42" stroke-width="5" stroke-linecap="round"/>
</svg>