<svg xmlns="http://www.w3.org/2000/svg" viewBox="0 0 256 256" role="img" aria-labelledby="title desc">
<title id="title">GoreeCloud Home Security — Hearth Sentinel</title><desc id="desc">A protected home aperture contains a local camera eye and bounded sensor arcs.</desc>
<defs><linearGradient id="bg" x1="24" y1="18" x2="232" y2="238"><stop stop-color="#42D8F5"/><stop offset=".5" stop-color="#3B82F6"/><stop offset="1" stop-color="#4C44C7"/></linearGradient></defs>
<rect width="256" height="256" rx="58" fill="url(#bg)"/>
<path d="m48 116 80-65 80 65v78c0 10-8 18-18 18H66c-10 0-18-8-18-18Z" fill="#fff" fill-opacity=".18" stroke="#fff" stroke-width="7" stroke-linejoin="round"/>
<path d="M78 125c10-23 28-36 50-36s40 13 50 36" fill="none" stroke="#DDF9FF" stroke-width="9" stroke-linecap="round"/>
<path d="M92 133c7-14 20-22 36-22s29 8 36 22" fill="none" stroke="#B5FFF4" stroke-width="7" stroke-linecap="round"/>
<circle cx="128" cy="151" r="39" fill="#14244C" stroke="#fff" stroke-width="6"/>
<circle cx="128" cy="151" r="20" fill="#93EDFF"/><circle cx="128" cy="151" r="9" fill="#1C4BC2"/>
<path d="M93 190h70" stroke="#fff" stroke-width="8" stroke-linecap="round" opacity=".9"/><circle cx="176" cy="93" r="10" fill="#fff"/>
</svg>